<svg width="612" height="612" viewBox="0 0 612 612" fill="none" xmlns="http://www.w3.org/2000/svg">
<path d="M496.727 572.665C444.026 524.55 480.823 403.944 481.766 400.906L508.03 320.509C533.308 243.131 507.761 161.148 449.826 110.868C462.678 71.0385 440.835 28.1345 401.023 15.1288C361.211 2.12276 318.252 23.8593 305.112 63.59C228.669 69.9715 159.649 121.061 134.371 198.439L108.107 278.836C107.075 281.845 65.5727 400.914 -5.37156 408.636C-13.4536 409.517 -19.8288 415.918 -20.6686 424.005C-21.5106 432.093 -16.592 439.672 -8.86293 442.197L147.866 493.397C145.305 512.122 148.29 531.295 156.722 548.789C167.92 572.023 187.189 589.099 210.975 596.869C234.763 604.64 260.397 602.234 283.15 590.091C300.286 580.948 314.015 567.234 322.999 550.611L479.728 601.811C487.457 604.336 495.9 601.123 499.997 594.098C504.096 587.076 502.731 578.146 496.727 572.665ZM434.044 488.652C434.107 510.478 436.845 533.271 444.515 554L47.7885 424.396C66.2144 412.195 81.8805 395.415 94.8171 377.832L434.044 488.652ZM390.305 47.9375C408.314 53.8205 419.587 70.8953 418.963 88.9458C407.521 82.3906 395.25 76.8966 382.234 72.6445C369.218 68.3924 356.071 65.5818 342.965 64.1187C353.118 49.1822 372.298 42.0547 390.305 47.9375ZM140.882 289.654L167.18 209.156C194.924 124.23 286.588 77.7086 371.516 105.453C456.444 133.198 502.965 224.862 475.221 309.788L448.88 390.42C448.096 392.895 440.007 418.955 436.114 453.016L114.185 347.847C131.164 318.027 140.037 292.173 140.882 289.654ZM221.695 564.064C196.657 555.885 180.702 530.693 181.53 504.396L289.339 539.615C274.482 561.329 246.736 572.245 221.695 564.064Z" fill="white"/>
<path d="M363.997 128.469C293.418 105.412 217.239 144.072 194.183 214.65C191.223 223.71 196.168 233.455 205.228 236.414C214.288 239.374 224.033 234.429 226.992 225.369C244.139 172.882 300.791 144.13 353.28 161.278C362.34 164.237 372.084 159.292 375.044 150.232C378.003 141.171 373.057 131.428 363.997 128.469Z" fill="white"/>
</svg>
